<?xml version="1.0" encoding="utf-8"?>
<!-- Generator: Adobe Illustrator 24.2.0, SVG Export Plug-In . SVG Version: 6.00 Build 0)  -->
<svg version="1.1" id="Livello_1" xmlns="http://www.w3.org/2000/svg" xmlns:xlink="http://www.w3.org/1999/xlink" x="0px" y="0px"
	 viewBox="0 0 130 114" style="enable-background:new 0 0 130 114;" xml:space="preserve">
<style type="text/css">
	.st0{fill:#9C9B9B;}
	.st1{fill:#FF6C2F;}
	.st2{fill:#1D1D1B;}
	.st3{enable-background:new    ;}
</style>
<g>
	<path class="st0" d="M29.2,75C22,75.1,15,72.1,10.1,66.7l0,0c-4.8-5.6-7.4-12.7-7.2-20l0,0C3,35.8,6.1,25.2,12,16l0,0
		C17.2,8.1,23.6,3.1,29.2,3l0,0c5.6,0,12,5.1,17.2,13l0,0c5.9,9.1,9,19.8,9.1,30.6l0,0c0.1,7.3-2.4,14.5-7.2,20l0,0
		C43.4,72.1,36.5,75.1,29.2,75L29.2,75L29.2,75z M13.3,16.9c-5.7,8.9-8.8,19.2-8.8,29.8l0,0c0,14.9,9.9,26.7,24.7,26.7l0,0
		c14.8,0,24.7-11.8,24.7-26.7l0,0c0-10.6-3.1-20.9-8.8-29.8l0,0c-5-7.7-11.3-12.3-15.9-12.3h-0.1C24.6,4.6,18.3,9.3,13.3,16.9
		L13.3,16.9z"/>
	<path class="st1" d="M44.5,48.7c0,8.4-6.9,15.3-15.3,15.3c-8.4,0-15.3-6.9-15.3-15.3c0-8.4,6.8-15.3,15.3-15.3
		C37.7,33.4,44.5,40.3,44.5,48.7z"/>
</g>
<g>
	<g>
		<path class="st2" d="M12.5,98.3c-4.7,0.1-8.7-3.7-8.8-8.4c-0.1-4.7,3.7-8.7,8.4-8.8c0.1,0,0.2,0,0.2,0c4.7-0.1,8.7,3.7,8.8,8.4
			C21.2,94.3,17.3,98.2,12.5,98.3z M12.4,82.7c-3.9,0.1-6.9,3.3-6.8,7.2c0.1,3.9,3.3,6.9,7.2,6.8c3.8-0.1,6.8-3.2,6.8-7
			C19.5,85.7,16.3,82.6,12.4,82.7C12.4,82.7,12.4,82.7,12.4,82.7L12.4,82.7z"/>
		<path class="st2" d="M30,97.9h-1.6l-6.8-16.6h1.8l5.8,14.6l5.9-14.6h1.8L30,97.9z"/>
		<path class="st2" d="M45.7,98.3c-4.7-0.1-8.5-4-8.5-8.7c0.1-4.7,4-8.5,8.7-8.5c4.6,0.1,8.4,3.8,8.5,8.4
			C54.4,94.3,50.5,98.2,45.7,98.3z M45.6,82.7c-3.9,0.1-6.9,3.3-6.8,7.2c0.1,3.9,3.3,6.9,7.2,6.8c3.8-0.1,6.8-3.2,6.8-7
			C52.7,85.7,49.5,82.6,45.6,82.7C45.6,82.7,45.6,82.7,45.6,82.7z"/>
	</g>
	<path class="st0" d="M61.2,98.2c-2.7,0-5-2.1-5-4.9c0,0,0-0.1,0-0.1H58c0,1.8,1.4,3.3,3.2,3.4c1.8,0,3.3-1.4,3.4-3.2
		c0,0,0-0.1,0-0.1c0-1.7-1.4-2.8-3.1-3.2l-1.8-0.5c-1.8-0.5-3-2.2-3-4.1c0.1-2.5,2.2-4.5,4.7-4.4c2.4,0.1,4.4,2.1,4.4,4.5h-1.8
		c0.1-1.6-1.1-2.9-2.7-3c-1.6-0.1-2.9,1.1-3,2.7c0,0.1,0,0.1,0,0.2c-0.1,1.2,0.8,2.3,1.9,2.5l2,0.6c2.5,0.8,3.8,2.3,3.9,4.7
		C66.2,96.1,64,98.2,61.2,98.2C61.2,98.2,61.2,98.2,61.2,98.2z"/>
	<path class="st0" d="M72.9,82.9v15h-1.6v-15h-3.8v-1.6h9.2v1.6H72.9z"/>
	<path class="st0" d="M83.9,98.3c-3.1,0-5.6-2.6-5.5-5.7c0,0,0-0.1,0-0.1V81.3H80v10.9c-0.2,2.3,1.6,4.3,3.8,4.4c0,0,0.1,0,0.1,0
		c2.2,0,4-1.8,4-4.1c0,0,0,0,0-0.1V81.3h1.7v11.2c0,3.1-2.4,5.7-5.5,5.7C84.1,98.3,84,98.3,83.9,98.3z"/>
	<path class="st0" d="M97.1,97.9h-5.6V81.3h4.8c5.3,0,9.1,3.6,9.1,8.3C105.4,94.2,101.7,97.9,97.1,97.9z M96.6,82.9h-3.5v13.5h4
		c3.7,0,6.7-3.1,6.7-6.8c0,0,0-0.1,0-0.1C103.5,85.7,100.3,82.8,96.6,82.9z"/>
	<path class="st0" d="M107.3,97.9V81.3h1.7v16.6H107.3z"/>
	<path class="st0" d="M119.4,98.3c-4.7-0.1-8.5-4-8.5-8.7c0.1-4.7,4-8.5,8.7-8.5c4.6,0.1,8.4,3.8,8.5,8.4
		C128.1,94.3,124.2,98.2,119.4,98.3z M119.3,82.7c-3.9,0.1-6.9,3.3-6.8,7.2c0.1,3.9,3.3,6.9,7.2,6.8c3.8-0.1,6.8-3.2,6.8-7
		C126.4,85.7,123.2,82.6,119.3,82.7C119.3,82.7,119.3,82.7,119.3,82.7z"/>
</g>
<g class="st3">
	<path class="st2" d="M57.7,104.8h1.8c0.6,0,1,0.1,1.3,0.3c0.4,0.3,0.6,0.7,0.6,1.2c0,0.6-0.3,1-0.8,1.2c1,0.3,1.1,1.2,1.1,1.5
		c0,0.6-0.3,1.1-0.7,1.4c-0.4,0.3-0.8,0.3-1.5,0.3h-1.7V104.8z M58.7,107.2h0.8c0.2,0,0.4,0,0.6-0.1c0.3-0.2,0.4-0.4,0.4-0.7
		c0-0.4-0.2-0.6-0.4-0.7c-0.1-0.1-0.3-0.1-0.6-0.1h-0.8V107.2z M58.7,109.9h1c0.2,0,0.4,0,0.6-0.1c0.3-0.1,0.5-0.4,0.5-0.8
		c0-0.4-0.2-0.7-0.5-0.8c-0.2-0.1-0.4-0.1-0.7-0.1h-0.9V109.9z"/>
	<path class="st2" d="M63.4,104.8h3.3v0.8h-2.4v1.7h2.3v0.8h-2.3v1.8h2.4v0.8h-3.3V104.8z"/>
	<path class="st2" d="M71.7,110.7v-5.9H73l1.8,4.6l1.8-4.6h1.3v5.9H77l0-5l-2,5h-0.6l-2-5l0,5H71.7z"/>
	<path class="st2" d="M79.9,104.8h3.3v0.8h-2.4v1.7h2.3v0.8h-2.3v1.8h2.4v0.8h-3.3V104.8z"/>
	<path class="st2" d="M85,110.7v-5.9h1.3l1.8,4.6l1.8-4.6h1.3v5.9h-0.9l0-5l-2,5h-0.6l-2-5l0,5H85z"/>
	<path class="st2" d="M93,107.8c0-1.9,1.4-3.1,3.1-3.1c1.8,0,3.1,1.4,3.1,3.1s-1.3,3.1-3.1,3.1C94.3,110.8,93,109.4,93,107.8
		L93,107.8z M93.9,107.7c0,1.2,0.9,2.2,2.2,2.2c1.3,0,2.1-1.1,2.1-2.2c0-1.2-0.9-2.2-2.2-2.2C94.8,105.5,93.9,106.5,93.9,107.7
		L93.9,107.7z"/>
	<path class="st2" d="M100.8,104.8h1.7c0.9,0,1.4,0.1,1.7,0.3c0.5,0.3,0.8,0.9,0.8,1.6c0,0.4-0.1,0.8-0.3,1.1
		c-0.3,0.4-0.7,0.6-1.1,0.6l1.4,2.2h-1l-1.6-2.7h0.2c0.4,0,0.9,0,1.2-0.3c0.3-0.2,0.4-0.6,0.4-1c0-0.4-0.2-0.8-0.5-1
		c-0.3-0.2-0.6-0.2-1-0.2h-0.8v5.1h-0.9V104.8z"/>
	<path class="st2" d="M107.1,110.7h-1l2.4-5.9h0.9l2.4,5.9h-1l-0.6-1.4h-2.5L107.1,110.7z M108.9,105.9l-1,2.7h2L108.9,105.9z"/>
	<path class="st2" d="M113.2,104.8h1.8c0.6,0,1,0.1,1.3,0.3c0.4,0.3,0.6,0.7,0.6,1.2c0,0.6-0.3,1-0.8,1.2c1,0.3,1.1,1.2,1.1,1.5
		c0,0.6-0.3,1.1-0.7,1.4c-0.4,0.3-0.8,0.3-1.5,0.3h-1.7V104.8z M114.2,107.2h0.8c0.2,0,0.4,0,0.6-0.1c0.3-0.2,0.4-0.4,0.4-0.7
		c0-0.4-0.2-0.6-0.4-0.7c-0.1-0.1-0.3-0.1-0.6-0.1h-0.8V107.2z M114.2,109.9h1c0.2,0,0.4,0,0.6-0.1c0.3-0.1,0.5-0.4,0.5-0.8
		c0-0.4-0.2-0.7-0.5-0.8c-0.2-0.1-0.4-0.1-0.7-0.1h-0.9V109.9z"/>
	<path class="st2" d="M118.9,104.8h0.9v5.1h2.1v0.8h-3V104.8z"/>
	<path class="st2" d="M123.3,104.8h3.3v0.8h-2.4v1.7h2.3v0.8h-2.3v1.8h2.4v0.8h-3.3V104.8z"/>
</g>
</svg>
